Coordinates
version=1
nRows=26
nColumns=24
inDegrees=yes

Units are S.I. units (second, meters, Newtons, ...)
Angles are in degrees.

endheader
time	pelvis_tilt	pelvis_list	pelvis_rotation	pelvis_tx	pelvis_ty	pelvis_tz	hip_flexion_r	hip_adduction_r	hip_rotation_r	knee_angle_r	ankle_angle_r	subtalar_angle_r	mtp_angle_r	hip_flexion_l	hip_adduction_l	hip_rotation_l	knee_angle_l	ankle_angle_l	subtalar_angle_l	mtp_angle_l	lumbar_extension	lumbar_bending	lumbar_rotation
      5.81000000	    -12.15228369	      6.57801932	      2.74760074	     -0.43442939	     -0.03321415	      2.03184455	     19.02395512	    -12.38378450	    -10.81952675	    -61.60364100	    -22.60932792	     -6.97856405	     27.63181128	     28.73755869	     12.51629026	     -5.63090451	    -22.32843997	     -2.21861555	     -7.12763531	     21.01854895	      8.48288125	     -7.27794229	      0.16736424
      5.82000000	    -12.19769437	      6.62249403	      2.66205341	     -0.42239221	     -0.03124658	      2.03133390	     20.94915349	    -12.17619541	     -9.79724513	    -62.65756739	    -20.87285841	     -7.91392247	     27.09011003	     27.52065128	     12.56736039	     -5.59778187	    -21.56753078	     -1.68891588	     -6.85875053	     20.93546962	      8.42564774	     -7.29218067	     -0.10286017
      5.83000000	    -12.15136645	      6.60393837	      2.65134754	     -0.41033487	     -0.02917918	      2.03061180	     22.66111505	    -11.91916963	     -8.93197858	    -63.35153780	    -19.04414913	     -8.32382678	     26.34288681	     26.13522845	     12.64644411	     -5.28202670	    -20.73777131	     -1.02452777	     -6.65765918	     19.60247759	      8.27600395	     -7.23352194	     -0.49415146
      5.84000000	    -12.09341789	      6.50451224	      2.67702745	     -0.39835135	     -0.02716756	      2.02980411	     24.26383274	    -11.58000559	     -8.19634058	    -63.67267676	    -17.35367277	     -8.52567035	     26.58912311	     24.70159885	     12.67568335	     -4.81897402	    -19.79957182	     -0.66297324	     -6.70928604	     19.36978189	      8.11110068	     -7.09304233	     -0.88393661
      5.85000000	    -11.99100810	      6.33926963	      2.74774931	     -0.38641211	     -0.02519594	      2.02882017	     25.70849903	    -11.19233598	     -7.61476832	    -63.63170868	    -15.76867607	     -8.62255385	     27.08133045	     23.23861994	     12.69264190	     -4.15219782	    -18.96880089	      0.12582718	     -6.67255430	     16.52717570	      7.89751509	     -6.87131440	     -1.33217753
      5.86000000	    -11.91509250	      6.09554226	      2.86936215	     -0.37458260	     -0.02338926	      2.02786475	     27.08430255	    -10.72419140	     -7.15363554	    -63.27634353	    -14.19387998	     -8.54842081	     27.46595149	     21.81600310	     12.61294587	     -3.51395785	    -18.06222031	      0.41133880	     -6.88234783	     16.11739306	      7.70529650	     -6.59454427	     -1.73973833
      5.87000000	    -11.83081791	      5.74650713	      3.08146239	     -0.36288570	     -0.02166398	      2.02682088	     28.32055484	    -10.19340222	     -6.88923780	    -62.57236558	    -12.72883554	     -8.37853120	     27.85091194	     20.43848194	     12.42289576	     -2.91556268	    -17.23860330	      0.73279995	     -6.94620127	     15.75144319	      7.48547319	     -6.22317708	     -2.30150327
      5.88000000	    -11.71156512	      5.32908488	      3.35464517	     -0.35123009	     -0.01998916	      2.02569590	     29.39632972	     -9.64596962	     -6.80665150	    -61.53225149	    -11.50780746	     -8.22891662	     28.19806942	     19.04060058	     12.15940461	     -2.29631844	    -16.43380759	      1.06821776	     -6.97510493	     15.37712691	      7.22624102	     -5.79203334	     -2.86027481
      5.89000000	    -11.57893303	      4.88604562	      3.66791562	     -0.33964390	     -0.01842707	      2.02456060	     30.36120171	     -9.11390918	     -6.86228936	    -60.20401700	    -10.54195465	     -8.17697188	     28.43218895	     17.65569480	     11.84372931	     -1.76098036	    -15.65370511	      1.43022929	     -6.89172038	     15.04681776	      6.94980076	     -5.33837274	     -3.42635599
      5.90000000	    -11.50486880	      4.44463037	      4.02363019	     -0.32814168	     -0.01710382	      2.02345572	     31.31017040	     -8.61449142	     -6.98921570	    -58.64562371	     -9.71271447	     -8.11300745	     28.46307791	     16.36889898	     11.50444854	     -1.26383571	    -14.91222019	      1.77708036	     -6.67989132	     14.91889986	      6.72928308	     -4.90759343	     -3.96885207
      5.91000000	    -11.39142766	      3.98600406	      4.43517277	     -0.31660625	     -0.01591525	      2.02226324	     32.09834411	     -8.17208547	     -7.30251148	    -56.83489567	     -8.98562663	     -8.09260849	     28.22878681	     15.04164181	     11.13642479	     -0.80448628	    -14.16213764	      2.13441441	     -6.44675282	     14.86694838	      6.47641953	     -4.46112411	     -4.57812403
      5.92000000	    -11.29795528	      3.52652387	      4.87023702	     -0.30512569	     -0.01494943	      2.02112710	     32.81502614	     -7.74504519	     -7.67280209	    -54.81096583	     -8.26199825	     -8.03414010	     27.66366518	     13.75811197	     10.74489562	     -0.31521948	    -13.43281115	      2.48302186	     -6.19100123	     14.87814310	      6.24420748	     -4.02915108	     -5.18391427
      5.93000000	    -11.07757010	      3.11741793	      5.16536781	     -0.29366289	     -0.01405361	      2.02027998	     33.33311711	     -7.24397402	     -7.88182638	    -52.62624401	     -7.29944496	     -7.80498139	     25.36788785	     12.31628160	     10.34018797	      0.11822463	    -12.63305952	      2.76998502	     -6.07274019	     14.82017695	      5.87712123	     -3.62709244	     -5.62554096
      5.94000000	    -11.13577083	      2.68063657	      5.58980685	     -0.28226760	     -0.01365783	      2.01936135	     34.04809143	     -6.82765210	     -8.25413209	    -50.25369340	     -6.34718720	     -7.49485749	     23.16023610	     11.23612804	      9.92925907	      0.59494201	    -11.93461581	      3.11966308	     -5.82182189	     14.70437763	      5.81115978	     -3.24852104	     -6.14167626
      5.95000000	    -11.33736790	      2.27003746	      5.98791844	     -0.27098511	     -0.01366202	      2.01853414	     34.84436162	     -6.45274661	     -8.61723266	    -47.66905044	     -5.60743987	     -7.17337856	     22.63477537	     10.36253832	      9.53673300	      0.97785070	    -11.29833591	      3.48796757	     -5.58356990	     14.66947342	      5.88791104	     -2.91354658	     -6.69024805
      5.96000000	    -11.22649891	      1.92820266	      6.13001483	     -0.25948845	     -0.01344525	      2.01810065	     35.22447222	     -5.95378257	     -8.78349485	    -44.91893324	     -4.69141901	     -6.59402215	     20.38876147	      9.05446497	      9.12246091	      1.19824195	    -10.48370849	      3.84154541	     -5.46675748	     14.13653554	      5.65680496	     -2.58521383	     -6.88770087
      5.97000000	    -11.48557263	      1.58457152	      6.41094942	     -0.24810418	     -0.01387127	      2.01757778	     35.92698333	     -5.62269823	     -9.17441105	    -42.02274084	     -4.03495839	     -5.90146355	     20.01929832	      8.26593471	      8.75144191	      1.33209360	     -9.86641543	      4.25696499	     -5.16394581	     14.05703548	      5.81228520	     -2.32252396	     -7.31599443
      5.98000000	    -11.54150035	      1.27948390	      6.51438686	     -0.23657928	     -0.01418590	      2.01732877	     36.32841827	     -5.22361023	     -9.53078777	    -38.96432289	     -3.47065457	     -4.96160113	     19.61143021	      7.23248619	      8.35580328	      1.21261881	     -9.19304437	      4.67650117	     -4.80193380	     13.90782574	      5.76283490	     -2.05262383	     -7.51493047
      5.99000000	    -11.65421042	      0.99447979	      6.55104132	     -0.22503855	     -0.01471985	      2.01722884	     36.72732180	     -4.83488164	     -9.97325085	    -35.80674928	     -3.00200612	     -3.79233971	     19.43628405	      6.32000694	      7.97601063	      0.87698607	     -8.61555227	      5.12037728	     -4.36847851	     13.82892256	      5.77456072	     -1.80355594	     -7.62738904
      6.00000000	    -11.77200577	      0.69718367	      6.55387728	     -0.21349127	     -0.01536375	      2.01725134	     37.04994240	     -4.43589351	    -10.56738807	    -32.55641123	     -2.61263732	     -2.36143680	     19.52416732	      5.47890501	      7.57880178	      0.35948388	     -8.14752022	      5.59293394	     -3.84621700	     13.85865681	      5.78758750	     -1.54502429	     -7.68226054
      6.01000000	    -11.75198993	      0.31206286	      6.45902222	     -0.20190652	     -0.01585234	      2.01746660	     37.11011911	     -3.86414727	    -11.25148420	    -29.14521594	     -2.44203191	     -0.86835085	     20.02124637	      4.54642174	      7.05439844	     -0.32172741	     -7.77234197	      6.11972647	     -3.20696303	     13.97972041	      5.66591620	     -1.15963794	     -7.66423385
      6.02000000	    -11.81806438	     -0.03663825	      6.35635674	     -0.19038011	     -0.01658079	      2.01775225	     37.21070638	     -3.34634196	    -12.07778011	    -25.77341528	     -2.22176486	      0.86817596	     20.74390781	      3.78226647	      6.58696750	     -1.06842526	     -7.54169815	      6.61720470	     -2.59188988	     14.18041079	      5.61618867	     -0.82284244	     -7.61852852
      6.03000000	    -12.00867300	     -0.24285937	      6.23413471	     -0.17881755	     -0.01768894	      2.01815148	     37.39774340	     -2.96065917	    -12.94213393	    -22.49728413	     -1.83110576	      2.81053640	     21.06660280	      3.19652206	      6.29465659	     -1.80037352	     -7.43343129	      7.02276891	     -2.12302707	     14.31907750	      5.68786321	     -0.65259280	     -7.50227706
      6.04000000	    -11.85642588	     -0.52760955	      6.14763390	     -0.16683794	     -0.01856186	      2.01870264	     36.99141061	     -2.38883738	    -13.78642886	    -18.99141501	     -1.65927604	      4.29761172	     21.48095280	      2.25057378	      5.84628008	     -2.49849866	     -7.40543834	      7.55042710	     -1.45367774	     14.49712265	      5.44817731	     -0.38171809	     -7.44352934
      6.05000000	    -11.79477727	     -0.65112256	      6.17946060	     -0.15456751	     -0.01984143	      2.01924133	     36.56878687	     -2.01990043	    -14.66092729	    -15.55013110	     -1.43127726	      5.71888050	     21.52905370	      1.44346687	      5.57365020	     -3.06697217	     -7.53375734	      8.03309712	     -0.78112057	     14.63360443	      5.32764351	     -0.32202352	     -7.44446129
      6.06000000	    -11.47579385	     -0.85008655	      6.27341303	     -0.14189103	     -0.02092004	      2.01988814	     35.71909527	     -1.50012638	    -15.40816695	    -12.09486641	     -1.44593111	      6.46980658	     21.32693210	      0.39434977	      5.14615141	     -3.53641466	     -7.77859291	      8.56971144	      0.06135724	     14.76358209	      4.98858008	     -0.17964870	     -7.50423315
